Coordinates
version=1
nRows=14
nColumns=40
inDegrees=yes

Units are S.I. units (second, meters, Newtons, ...)
Angles are in degrees.

endheader
time	pelvis_tilt	pelvis_list	pelvis_rotation	pelvis_tx	pelvis_ty	pelvis_tz	hip_flexion_r	hip_adduction_r	hip_rotation_r	knee_angle_r	knee_angle_r_beta	ankle_angle_r	subtalar_angle_r	mtp_angle_r	hip_flexion_l	hip_adduction_l	hip_rotation_l	knee_angle_l	knee_angle_l_beta	ankle_angle_l	subtalar_angle_l	mtp_angle_l	lumbar_extension	lumbar_bending	lumbar_rotation	arm_flex_r	arm_add_r	arm_rot_r	elbow_flex_r	pro_sup_r	wrist_flex_r	wrist_dev_r	arm_flex_l	arm_add_l	arm_rot_l	elbow_flex_l	pro_sup_l	wrist_flex_l	wrist_dev_l
     31.61750000	     -6.50302613	     -4.05671827	     -4.71810767	      0.83600211	      0.92559764	      0.46782624	     19.71296186	      0.19428444	     -6.90656046	     18.81421652	     18.81421652	      7.08604024	     -1.27629949	     -3.29818524	      4.15234336	     -7.42516657	    -11.50327541	     19.04304813	     19.04304813	     19.39842681	     -3.92930767	     -0.06614616	     -8.28084388	      5.18327202	     -0.53508242	    -12.05513770	    -16.79264343	      0.32359077	     33.59738851	     45.13013865	      0.00000000	      0.00000000	     27.43248539	    -16.62291899	    -10.08439978	     68.42051080	     47.93958294	      0.00000000	      0.00000000
     31.64085714	     -6.42934019	     -4.25631856	     -4.11623399	      0.83777120	      0.92597338	      0.47452283	     19.14644818	      0.75079132	     -7.26721134	     18.91671288	     18.91671288	      7.64924073	     -1.77459926	     -3.04330614	      3.81551537	     -8.24886054	    -11.42887117	     19.27170059	     19.27170059	     19.45618630	     -3.03342155	     -0.00192487	     -8.19562545	      5.13383568	     -0.49522108	    -11.49882313	    -17.12319200	      0.72495342	     33.94235308	     45.11052613	      0.00000000	      0.00000000	     26.03552402	    -16.17860076	     -9.31636275	     67.00088433	     47.84297281	      0.00000000	      0.00000000
     31.66421429	     -6.31272606	     -4.29523952	     -3.55471345	      0.83961708	      0.92636955	      0.48114464	     18.61328278	      1.11042651	     -7.68148554	     19.13026050	     19.13026050	      8.15735017	     -2.06605157	     -3.16216494	      3.46301244	     -8.82306800	    -11.05114654	     19.49053961	     19.49053961	     19.25110865	     -2.80911112	      0.05490129	     -8.14186745	      4.86678562	     -0.22053094	    -10.97313583	    -17.35200749	      0.74306221	     34.16275061	     45.10694390	      0.00000000	      0.00000000	     24.38245341	    -15.28925294	     -8.90152913	     66.25749471	     47.78705577	      0.00000000	      0.00000000
     31.68757143	     -6.17698061	     -4.48816164	     -2.94412416	      0.84139451	      0.92678590	      0.48778746	     17.91198743	      1.65740944	     -8.19502795	     19.06769503	     19.06769503	      8.65892620	     -2.29037208	     -2.98940397	      3.40575180	     -9.69920672	    -10.79442538	     20.29076445	     20.29076445	     19.10864240	     -2.31646479	     -0.10151281	     -8.04368085	      4.83755655	     -0.60968007	     -9.89407952	    -17.75568121	      0.99152804	     34.86182833	     45.08255314	      0.00000000	      0.00000000	     22.54302683	    -15.16606879	     -8.15228163	     64.11679057	     47.67945901	      0.00000000	      0.00000000
     31.71092857	     -5.98741315	     -4.53973233	     -2.40327238	      0.84312989	      0.92720048	      0.49432390	     17.30613466	      2.05393957	     -8.59049150	     19.26226155	     19.26226155	      9.39409108	     -2.48347157	     -2.32897371	      3.47613491	    -10.44698477	    -10.52660851	     21.40642307	     21.40642307	     18.67877231	     -1.99443788	     -0.73660998	     -7.97256998	      4.62332505	     -0.20679897	     -9.26871627	    -18.39164161	      2.49970305	     35.78286968	     45.00700339	      0.00000000	      0.00000000	     21.35555600	    -14.51922827	     -6.48879112	     60.93596868	     47.47900970	      0.00000000	      0.00000000
     31.73428571	     -5.63112734	     -4.29052459	     -1.92242330	      0.84494979	      0.92796694	      0.50066993	     16.49905469	      2.13999894	     -8.87862134	     19.36885116	     19.36885116	      9.87775235	     -2.71440726	     -2.42832604	      3.41856972	    -10.78463452	    -10.03578690	     22.58014589	     22.58014589	     18.11613291	     -2.09798389	     -0.84809913	     -8.18139805	      4.03690887	      0.31346036	     -8.35592631	    -18.55452890	      2.44626877	     36.16240264	     45.00351807	      0.00000000	      0.00000000	     19.25775182	    -13.51005521	     -6.07821592	     59.99942148	     47.41576008	      0.00000000	      0.00000000
     31.75764286	     -5.53967494	     -4.53102548	     -1.23793806	      0.84600027	      0.92774122	      0.50681575	     16.04248653	      2.70745640	     -9.43742177	     19.53426498	     19.53426498	     10.36671991	     -2.94054065	     -2.39896316	      4.84235928	    -11.82441512	     -8.83536460	     25.75192572	     25.75192572	     17.45121512	     -3.14909905	     -2.03073500	     -8.01554742	      4.09992021	     -0.58743738	     -6.38988704	    -18.88994842	      2.35153941	     37.21510842	     44.99036639	      0.00000000	      0.00000000	     16.97173959	    -13.42273239	     -5.42422044	     57.20689670	     47.30434558	      0.00000000	      0.00000000
     31.78100000	     -5.28838065	     -4.42988144	     -0.68075277	      0.84702055	      0.92771760	      0.51266904	     15.60259406	      2.91367305	     -9.72387818	     20.03264893	     20.03264893	     11.20261968	     -3.30399627	     -1.61207927	      5.98989980	    -12.30373469	     -7.48227005	     28.54404700	     28.54404700	     15.10091447	     -5.25087654	     -6.03523023	     -7.95788975	      3.79693015	     -0.30742713	     -4.85296095	    -19.35829701	      3.37982123	     37.88000364	     44.96915692	      0.00000000	      0.00000000	     16.08651073	    -12.65120622	     -3.89784131	     51.91611150	     47.09343196	      0.00000000	      0.00000000
     31.80435714	     -4.96137232	     -4.45382860	     -0.08397785	      0.84773680	      0.92732201	      0.51827749	     15.13077396	      3.23307891	    -10.06986555	     20.55279560	     20.55279560	     11.77800776	     -3.75706201	     -1.70580778	      7.78460202	    -13.00169653	     -6.05234074	     32.67889840	     32.67889840	     14.00478924	     -6.69093948	     -7.00903644	     -8.11890068	      3.66267586	     -0.46351859	     -2.87537853	    -19.53258963	      3.14434973	     38.82385341	     44.96732562	      0.00000000	      0.00000000	     13.72688601	    -12.06521257	     -3.37212894	     49.91186739	     46.99993256	      0.00000000	      0.00000000
     31.82771429	     -4.64974082	     -4.34603353	      0.46622675	      0.84808018	      0.92656407	      0.52349293	     14.89889260	      3.40827609	    -10.18327888	     21.45293536	     21.45293536	     12.64435635	     -4.49399391	     -1.22931308	      9.81882949	    -13.25609081	     -4.08603405	     36.95656065	     36.95656065	     11.88175309	     -9.56871691	     -9.05571990	     -8.19588282	      3.39289608	     -0.42965870	     -0.60277675	    -19.66491096	      3.27109791	     39.30569361	     44.99896667	      0.00000000	      0.00000000	     12.37756647	    -11.32849583	     -2.31147398	     45.12455163	     46.83232254	      0.00000000	      0.00000000
     31.85107143	     -4.28349657	     -4.31322544	      1.01138785	      0.84809980	      0.92531496	      0.52835264	     14.71368393	      3.64096827	    -10.26754158	     22.48174149	     22.48174149	     13.40312695	     -5.32466594	     -1.32216880	     12.22881568	    -13.55712301	     -2.19941862	     41.91450295	     41.91450295	     10.44228157	    -11.62893941	     -9.20656524	     -8.44271684	      3.25148261	     -0.55681421	      1.87483401	    -19.71445054	      2.96286213	     40.29540692	     45.00671332	      0.00000000	      0.00000000	     10.15323020	    -10.73610176	     -1.74800705	     42.55339925	     46.72580362	      0.00000000	      0.00000000
     31.87442857	     -3.84319745	     -4.27848423	      1.53278049	      0.84789172	      0.92367158	      0.53274336	     14.61434786	      3.85166351	    -10.26710832	     23.79023116	     23.79023116	     14.23257327	     -6.38349914	     -1.24784477	     14.71840254	    -13.59050133	     -0.14105742	     46.98293020	     46.98293020	      9.27143113	    -13.92832971	     -8.14824708	     -8.69089469	      3.17265110	     -0.58775726	      4.65573137	    -19.69830433	      2.69583690	     40.97631032	     45.03017022	      0.00000000	      0.00000000	      8.30205452	    -10.08046776	     -1.04314445	     39.12986987	     46.59895723	      0.00000000	      0.00000000
     31.89778571	     -3.41156043	     -4.32911566	      2.02822453	      0.84746923	      0.92167434	      0.53675891	     14.57124093	      4.13990717	    -10.26585335	     25.16437807	     25.16437807	     15.32717186	     -7.27822827	     -0.57572940	     17.39420677	    -13.58787933	      1.80838561	     52.18165322	     52.18165322	      9.53544912	    -15.01671341	     -3.70275514	     -8.90778112	      3.22534180	     -0.11084464	      7.53025599	    -19.65948517	      2.30108845	     40.81535247	     45.11847483	      0.00000000	      0.00000000	      7.13615044	     -9.21844611	     -0.00877260	     34.59818730	     46.42085941	      0.00000000	      0.00000000
     31.92114286	     -2.89676677	     -4.30798331	      2.52135267	      0.84691822	      0.91940379	      0.54033358	     14.54497393	      4.35453179	    -10.14006494	     26.70073991	     26.70073991	     16.17662473	     -8.52745327	     -0.57533569	     19.78399272	    -13.37615424	      3.57258227	     56.67799567	     56.67799567	      9.07373320	    -16.56780969	     -1.29317227	     -9.28848847	      3.24772005	     -0.11546057	     10.54010274	    -19.53465880	      1.76787286	     41.91482374	     45.13888409	      0.00000000	      0.00000000	      4.88533178	     -8.73764229	      0.50591687	     32.51693750	     46.30546872	      0.00000000	      0.00000000
